<?xml version="1.0" encoding="utf-8"?>
<!-- Generator: Adobe Illustrator 16.0.0, SVG Export Plug-In . SVG Version: 6.00 Build 0)  -->
<!DOCTYPE svg PUBLIC "-//W3C//DTD SVG 1.1//EN" "http://www.w3.org/Graphics/SVG/1.1/DTD/svg11.dtd">
<svg version="1.1" id="Layer_1" xmlns="http://www.w3.org/2000/svg" xmlns:xlink="http://www.w3.org/1999/xlink" x="0px" y="0px"
	 width="1000px" height="1000px" viewBox="0 0 1000 1000" enable-background="new 0 0 1000 1000" xml:space="preserve">
<g>
	<path fill="#15B7A5" d="M452.613,395.321c0,6.274-1.041,12.878-3.122,19.806c-2.081,6.931-5.271,13.761-9.562,20.493
		c-4.29,6.732-9.786,13.239-16.482,19.513c-6.698,6.274-14.73,11.896-24.094,16.864c-9.362,4.968-20.028,9.122-31.994,12.455
		c-11.966,3.332-25.428,5.432-40.381,6.295c9.027,3.363,16.571,7.694,22.632,12.995c6.061,5.304,11.124,11.218,15.188,17.749
		c4.062,6.531,7.498,13.688,10.306,21.475c2.808,7.789,4.893,15.039,6.257,21.747c1.36,6.708,2.847,13.163,4.452,19.357
		c1.605,6.198,3.323,11.759,5.154,16.685c1.831,4.925,4.135,8.861,6.912,11.816c2.777,2.953,6.503,4.431,11.179,4.431
		c4.425,0,9.277-0.747,14.551-2.246c5.273-1.495,10.675-3.613,16.211-6.348c5.533-2.734,11.002-5.987,16.406-9.766
		c5.401-3.774,10.449-7.94,15.137-12.5l22.656,38.281c0-0.128-1.239,0.684-3.711,2.441c-2.475,1.758-5.927,3.974-10.352,6.641
		c-4.428,2.671-9.668,5.601-15.723,8.789s-12.729,6.152-20.02,8.887c-7.294,2.734-15.009,5.011-23.145,6.836
		c-8.139,1.821-16.437,2.734-24.891,2.734c-9.558,0-17.706-2.344-24.447-7.028c-6.744-4.688-12.47-10.87-17.182-18.549
		c-4.712-7.678-8.639-16.434-11.782-26.26c-3.144-9.827-5.691-19.293-7.651-28.402c-1.959-9.107-4.074-18.939-6.344-29.499
		c-2.271-10.56-4.691-19.906-7.264-28.049c-2.572-8.142-5.729-14.557-9.464-19.244c-3.738-4.688-8.41-7.031-14.014-7.031h-13.583
		c-4.022,28.146-7.861,53.559-11.515,76.239c-3.655,22.681-8.496,41.931-14.522,57.748c-6.031,15.817-13.581,27.908-22.653,36.276
		c-9.076,8.364-20.188,12.549-33.341,12.549c-10.419,0-19.956-1.987-28.613-5.957c-8.661-3.974-16.474-9.409-23.438-16.309
		c-6.967-6.903-13.056-14.976-18.262-24.219c-5.209-9.243-9.54-19.171-12.988-29.785c-3.452-10.61-6.055-21.582-7.812-32.91
		s-2.637-22.589-2.637-33.789c0-20.181,2.509-39.941,7.529-59.277s12.259-37.598,21.713-54.785
		c9.454-17.188,20.895-32.974,34.326-47.363c13.431-14.386,28.524-26.822,45.278-37.305c16.755-10.479,35.01-18.652,54.768-24.512
		c19.754-5.859,40.649-8.789,62.688-8.789c9.754,0,19.443,0.913,29.068,2.734c9.625,1.825,18.793,4.492,27.509,8.008
		s16.812,7.88,24.289,13.086c7.477,5.209,13.916,11.167,19.314,17.871c5.396,6.708,9.655,14.16,12.777,22.363
		S452.613,385.687,452.613,395.321z M331.461,348.251c-21.527,0-40.735,2.997-57.63,8.984
		c-16.895,5.991-31.735,14.062-44.521,24.219c-12.787,10.156-23.679,21.942-32.682,35.352
		c-9.003,13.413-16.306,27.475-21.915,42.188c-5.609,14.716-9.686,29.624-12.231,44.727c-2.545,15.106-3.814,29.492-3.814,43.164
		c0,10.547,0.909,21.128,2.734,31.738c1.822,10.614,4.688,20.151,8.594,28.613c3.906,8.466,8.951,15.332,15.137,20.605
		c6.183,5.273,13.638,7.91,22.363,7.91c4.425,0,8.331-1.724,11.719-5.176c3.385-3.448,6.378-8.071,8.984-13.867
		c2.604-5.792,4.883-12.5,6.836-20.117s3.339-15.536,4.156-23.765c0.818-8.224,1.643-16.516,2.473-24.871s1.607-16.162,2.331-23.413
		c0.72-7.251,1.229-13.679,1.529-19.281c0.299-5.6,0.448-9.881,0.448-12.842c-10.028-4.578-17.648-8.847-22.854-12.808
		s-7.81-8.539-7.81-13.739c0-1.438,0.095-3.162,0.29-5.176c0.192-2.011,0.61-3.879,1.254-5.606c0.645-1.724,1.578-3.198,2.802-4.419
		s2.865-1.834,4.929-1.834c0.903,0,2.707-0.052,5.411-0.162c2.703-0.107,5.538-0.235,8.502-0.385c2.963-0.146,5.7-0.274,8.212-0.381
		c2.512-0.104,4.153-0.159,4.929-0.159l0.195,0.305c0.128-2.844,0.357-5.899,0.684-9.165c0.323-3.265,0.882-6.979,1.669-11.148
		c0.788-4.166,1.936-8.365,3.446-12.598c1.507-4.229,3.509-8.072,6.006-11.523c2.493-3.448,5.478-6.25,8.956-8.398
		c3.479-2.148,7.712-3.223,12.702-3.223c6.561,0,10.925,1.511,13.092,4.526c2.167,3.018,3.25,6.873,3.25,11.566v1.813
		c-0.256,5.096-1.718,11.834-4.389,20.215c-2.67,8.383-5.148,18.072-7.437,29.068c22.326-0.403,40.75-2.585,55.271-6.552
		c14.52-3.964,26.025-8.972,34.518-15.021c8.493-6.049,14.453-12.671,17.878-19.861c3.424-7.19,5.136-14.148,5.136-20.871
		c0-6.378-1.529-12.5-4.581-18.359c-3.055-5.859-7.571-11.035-13.55-15.527s-13.385-8.072-22.223-10.742
		C353.421,349.588,343.156,348.251,331.461,348.251z"/>
	<path fill="#15B7A5" d="M518.756,622.846c-0.521,3.912-1.758,7.104-3.707,9.579c-1.949,2.475-4.291,4.428-7.021,5.862
		c-2.732,1.434-5.658,2.444-8.778,3.03c-3.122,0.586-6.112,0.879-8.972,0.879c-3.382,0-6.665-0.356-9.852-1.074
		c-3.186-0.714-6.015-1.821-8.483-3.32c-2.473-1.495-4.422-3.32-5.854-5.469c-1.435-2.148-2.148-4.59-2.148-7.324
		c0-5.337,0.26-10.254,0.781-14.746c0.519-4.492,1.3-9.015,2.344-13.574c3.326-15.247,6.421-29.416,9.277-42.502
		s6.158-25.363,9.906-36.831c3.747-11.469,6.256-22.736,7.525-33.805c1.27-11.066,2.539-22.135,3.809-33.203
		c1.27-11.066,1.801-22.592,1.593-34.58c-0.207-11.987-0.427-24.829-0.665-38.528c0-1.184,0-2.698,0-4.541s-0.187-3.58-0.556-5.209
		c-0.372-1.626-1.019-3.027-1.946-4.199s-2.316-1.758-4.169-1.758c-2.967,0-6.583,1.074-10.847,3.223
		c-4.263,2.148-8.743,5.048-13.437,8.691c-4.696,3.647-9.394,7.91-14.087,12.793s-9.018,10.126-12.973,15.723
		c-0.742,1.953-1.917,3.354-3.521,4.199c-1.605,0.849-3.397,1.27-5.375,1.27c-0.616,0-1.266-0.552-1.946-1.66
		c-0.678-1.104-1.298-2.441-1.855-4.004c-0.553-1.562-1.017-3.223-1.389-4.98c-0.369-1.758-0.556-3.351-0.556-4.785
		c0-0.781,0.263-1.431,0.781-1.953c4.688-15.362,9.991-28.223,15.918-38.574c5.924-10.352,12.174-18.619,18.75-24.805
		c6.573-6.183,13.281-10.577,20.117-13.184c6.836-2.603,13.379-3.906,19.629-3.906c8.072,0,14.775,1.532,20.117,4.59
		c5.338,3.061,9.57,7.358,12.695,12.891c3.125,5.536,5.303,12.207,6.543,20.02c1.236,7.812,1.855,16.474,1.855,25.977
		c0,7.294-0.715,15.848-2.141,25.665c-1.424,9.821-2.922,20.16-4.492,31.019c-1.568,10.861-3.572,21.637-6.012,32.324
		c-2.438,10.687-4.799,20.666-7.086,29.938c4.219-17.315,9.191-33.951,14.926-49.902c5.734-15.948,11.998-30.859,18.787-44.727
		c6.787-13.867,14.004-26.431,21.652-37.695c7.645-11.261,15.521-20.929,23.631-29.004c8.105-8.072,16.311-14.322,24.617-18.75
		c8.305-4.425,16.545-6.641,24.717-6.641c5.988,0,11.52,1.303,16.598,3.906c5.078,2.606,9.439,6.641,13.084,12.109
		c3.643,5.469,6.475,12.372,8.496,20.703c2.018,8.334,3.027,18.231,3.027,29.688c0,1.044-0.098,2.67-0.293,4.883
		c-0.195,2.216-0.459,4.755-0.781,7.617c-0.326,2.866-0.717,5.957-1.172,9.277c-0.459,3.32-0.879,6.61-1.27,9.863
		c-1.045,7.812-2.148,16.278-3.32,25.391l4.102-0.195c5.066-19.269,11.303-36.587,18.713-51.953
		c7.41-15.362,15.727-28.418,24.955-39.16c9.225-10.742,19.168-18.976,29.824-24.707c10.656-5.728,21.703-8.594,33.143-8.594
		c7.879,0,14.889,2.344,21.025,7.031s11.273,11.035,15.408,19.043c4.133,8.008,7.297,17.383,9.494,28.125s3.297,22.104,3.297,34.082
		c0,11.2-1.1,22.919-3.291,35.159c-2.193,12.244-4.375,24.417-6.549,36.523c-2.172,12.106-4.312,24.011-6.412,35.715
		c-2.102,11.703-4.094,22.8-5.977,33.289c-1.887,10.491-3.6,20.145-5.143,28.964c-1.545,8.819-2.316,15.493-2.316,20.022
		c0,5.686,1.389,9.805,4.172,12.356c2.779,2.555,6.822,3.83,12.127,3.83c2.994,0,6.152-0.812,9.473-2.441
		c3.32-1.626,6.641-3.774,9.961-6.445c3.32-2.667,6.607-5.728,9.863-9.18c3.254-3.448,6.379-6.997,9.375-10.645
		c6.9-8.331,13.736-17.901,20.508-28.711c0,0.132,0.586,1.499,1.758,4.102c0.91,2.216,2.408,5.991,4.492,11.328
		c2.082,5.341,5.012,13.022,8.789,23.047c-6.512,11.46-13.217,21.161-20.117,29.102c-6.902,7.944-13.934,14.423-21.094,19.434
		c-7.162,5.015-14.422,8.628-21.777,10.84c-7.357,2.216-14.658,3.32-21.902,3.32c-7.027,0-13.891-1.235-20.594-3.711
		c-6.701-2.472-12.652-6.152-17.857-11.035c-5.207-4.883-9.369-10.938-12.492-18.164c-3.125-7.227-4.684-15.527-4.684-24.902
		c0-1.04,0.029-2.148,0.098-3.32c0.064-1.172,0.162-2.344,0.293-3.516c0.518-8.722,1.672-18.069,3.461-28.036
		c1.787-9.967,3.637-20.291,5.553-30.979c1.914-10.685,3.857-21.53,5.83-32.541c1.971-11.008,3.936-21.985,5.896-32.929
		c1.959-10.943,3.875-21.695,5.748-32.254c1.871-10.556,2.809-19.77,2.809-27.637c0-5.859-0.199-11.163-0.592-15.918
		c-0.395-4.751-1.182-8.789-2.359-12.109s-2.881-5.89-5.109-7.715c-2.227-1.822-5.178-2.734-8.846-2.734
		c-7.381,0-14.338,2.402-20.879,7.202c-6.543,4.8-12.734,11.417-18.578,19.852c-5.848,8.435-11.311,18.424-16.389,29.972
		c-5.08,11.548-9.881,24.039-14.404,37.466c-4.521,13.428-8.361,27.493-11.518,42.193c-3.154,14.701-6.621,29.919-10.402,45.658
		s-6.68,30.633-8.695,44.684s-4.287,27.561-6.809,40.53c-0.908,3.649-2.301,6.747-4.174,9.29c-1.873,2.542-4.031,4.596-6.473,6.158
		s-5.027,2.703-7.752,3.421s-5.451,1.074-8.176,1.074c-2.73,0-5.43-0.519-8.094-1.562c-2.664-1.04-5.004-2.7-7.018-4.98
		c-2.016-2.276-3.641-5.176-4.875-8.691s-1.852-7.812-1.852-12.891c-2.512-3.384-2.982-9.226-1.414-17.526
		c1.57-8.298,3.471-18.158,5.707-29.584c2.234-11.426,4.838-24.17,7.811-38.238s5.676-28.098,8.113-42.087
		c2.439-13.989,5.043-27.954,7.807-41.891c2.766-13.935,4.148-26.764,4.148-38.486c0-8.072-0.205-15.298-0.607-21.68
		c-0.406-6.378-1.35-11.783-2.832-16.211c-1.484-4.425-3.607-7.812-6.373-10.156c-2.764-2.344-6.441-3.516-11.025-3.516
		c-3.777,0-8.094,2.475-12.949,7.422s-10.08,11.783-15.676,20.505c-5.598,8.722-11.365,18.976-17.297,30.759
		c-5.938,11.783-11.838,24.508-17.705,38.18c-5.865,13.672-11.529,27.96-16.992,42.865c-5.461,14.908-10.045,29.932-13.744,45.075
		c-3.701,15.143-7.293,29.843-10.775,44.098C524.912,597.662,521.699,610.809,518.756,622.846z"/>
</g>
<g>
</g>
<g>
</g>
<g>
</g>
<g>
</g>
<g>
</g>
<g>
</g>
</svg>
